<svg width="390" height="399" viewBox="0 0 390 399" fill="none" xmlns="http://www.w3.org/2000/svg">
<path fill-rule="evenodd" clip-rule="evenodd" d="M119.409 253C71.1189 264.257 43.4902 248.54 36.5226 205.849C26.0711 141.812 61.4758 74.5361 110.055 68.087C158.633 61.6379 179.055 80.0342 213.198 103.136C247.342 126.237 346.302 180.593 357.545 189.818C368.788 199.043 392.844 235.092 344.728 257.925C312.65 273.148 272.745 270.281 225.011 249.325C208.232 241.988 192.951 238.106 179.17 237.677C165.389 237.249 145.468 242.356 119.409 253Z" fill="#FF763C"/>
<path d="M174.454 171.701C178.794 174.534 180.539 178.198 179.69 182.695C175.624 188.788 173.592 194.064 173.592 198.524C173.592 202.984 173.286 208.785 172.674 215.927L138.889 216.641L138.817 216.598C137.914 216.615 137.027 216.629 136.154 216.641C128.635 216.739 121.964 217.734 121.649 217.783C119.187 218.165 114.75 213.597 113.519 212.05C111.54 209.563 110.599 206.621 110.181 203.418C109.787 200.396 110.343 197.588 111.436 194.895C112.712 191.749 114.709 189.026 117.242 186.628C120.019 184.082 123.01 182.004 126.363 180.471C126.493 180.411 128.899 179.227 129.015 179.242C129.092 179.253 132.939 180.485 138.289 182.985C144.361 178.669 150.929 174.101 157.993 169.283C164.627 168.062 170.114 168.868 174.454 171.701Z" fill="#F5F5F5"/>
<path fill-rule="evenodd" clip-rule="evenodd" d="M130.736 245.229C136.049 246.323 139.251 244.239 140.344 238.976C141.983 231.081 132.08 232.492 129.049 228.429C126.018 224.366 132.741 223.552 140.344 225.99C147.955 225.657 150.151 226.093 150.588 223.994C151.025 221.895 147.061 220.573 136.47 220.919C125.879 221.265 127.437 221.279 128.243 230.128C128.78 236.026 129.611 241.06 130.736 245.229Z" fill="#F5F5F5"/>
<path d="M262.764 262.09C258.681 258.712 255.805 256.588 254.264 255.229C250.583 251.985 246.812 248.843 243.099 245.636C242.335 244.977 241.594 244.267 240.965 243.481C240.177 242.495 240.357 241.815 241.601 241.335C242.584 240.956 243.657 240.782 244.706 240.615C247.832 240.115 250.964 239.648 254.098 239.199C255.475 239.001 256.864 238.886 258.244 238.714C258.491 238.683 258.727 238.56 258.967 238.48C258.848 238.286 258.756 238.065 258.604 237.901C257.395 236.595 256.175 235.3 254.957 234.002C254.849 233.888 254.736 233.779 254.625 233.668C254.798 233.627 254.969 233.571 255.145 233.545C258.354 233.071 261.562 232.595 264.773 232.133C266.881 231.83 268.988 231.516 271.103 231.267C273.267 231.013 275.438 230.807 277.609 230.627C279.551 230.467 281.501 230.399 283.443 230.238C284.687 230.134 285.92 229.889 287.164 229.788C288.72 229.663 290.283 229.642 291.841 229.536C293.786 229.403 295.728 229.207 297.673 229.077C299.309 228.968 300.95 228.938 302.585 228.828C303.905 228.739 305.217 228.544 306.537 228.464C307.826 228.386 309.12 228.395 310.413 228.365C313.758 228.286 317.104 228.191 320.45 228.136C322.497 228.102 324.562 227.975 326.586 228.193C327.642 228.307 328.848 228.852 329.601 229.595C331.502 231.472 333.188 233.569 334.955 235.582C336.039 236.816 337.124 238.049 338.19 239.299C340.438 241.931 342.669 244.579 344.918 247.21C345.617 248.027 346.364 248.802 347.066 249.617C347.267 249.851 347.385 250.156 347.541 250.429C347.32 250.248 346.66 249.684 346.88 249.883C368.579 269.624 277.198 273.821 262.764 262.09Z" fill="#F5F5F5"/>
<path d="M15.5884 189.147C15.6624 187.114 15.7253 185.081 15.8042 183.049C15.8297 182.392 15.904 181.737 15.9445 181.081C16.2811 175.632 16.9286 170.217 18.3231 164.934C19.4359 160.719 20.9054 156.618 22.6913 152.613C24.7285 148.044 27.2053 143.748 30.0591 139.663C31.5131 137.582 33.1012 135.576 34.7909 133.679C36.8239 131.397 38.9127 129.137 41.1911 127.104C43.7922 124.784 46.5874 122.668 49.3945 120.593C50.0195 120.13 51.1243 119.905 51.8702 120.098C53.1798 120.437 53.3693 121.575 52.3674 122.445C50.0927 124.419 49.0103 126.939 48.8436 129.866C48.7515 131.483 48.9029 133.113 48.8132 134.73C48.5173 140.06 50.0738 144.967 52.3789 149.647C54.5827 154.122 57.7915 157.807 62.3959 159.96C65.0378 161.195 67.8631 162.062 70.6453 162.976C73.062 163.77 75.5383 164.382 77.9808 165.101C80.3769 165.805 82.7372 166.444 85.276 165.597C86.5784 165.163 87.5556 166.328 87.0568 167.59C85.1708 172.363 83.5638 177.318 80.2509 181.342C78.2636 183.757 75.9644 185.991 73.5049 187.929C69.8941 190.775 65.7422 192.804 61.595 194.803C57.55 196.752 53.5961 198.89 49.5331 200.8C44.956 202.952 40.3177 204.978 35.6762 206.991C31.9317 208.615 28.1515 210.159 24.3675 211.691C23.4627 212.057 22.4935 212.314 21.5292 212.474C20.563 212.634 18.4404 211.119 18.0612 210.117C17.0989 207.576 16.4448 204.963 16.1747 202.255C16.0103 200.607 15.789 198.964 15.5345 197.319C15.4758 197.202 15.4758 197.086 15.5345 196.911C15.6324 194.656 15.6735 192.461 15.7007 190.265C15.7015 190.204 15.5541 190.142 15.4758 190.081C15.4758 189.808 15.4758 189.536 15.4758 189.205C15.515 189.147 15.5884 189.148 15.5884 189.147Z" fill="#F5F5F5"/>
<path fill-rule="evenodd" clip-rule="evenodd" d="M172.269 215.855L243.371 214.044H246.288C250.539 217.211 255.204 218.575 260.282 218.138C267.898 217.482 274.624 209.075 276.195 197.355C276.426 196.441 276.987 196.221 277.879 196.696C278.86 198.609 280.601 199.444 283.103 199.2C284.189 199.083 284.793 199.337 285.406 200.515C286.019 201.694 289.26 203.177 291.292 201.987C293.324 200.797 302.69 185.626 302.69 183.073C302.69 180.52 303.215 174.945 303.629 174.585C304.042 174.225 304.82 174.517 306.329 174.038C307.839 173.56 309.131 174.036 313.971 161.331C318.811 148.626 326.216 129.633 327.005 116.334C327.794 103.035 318.4 107.735 313.971 113.285C309.542 118.835 297.196 133.124 285.77 140.884C284.372 141.928 283.231 142.419 282.346 142.357C281.816 139.054 279.644 137.823 275.831 138.665C274.349 138.931 273.136 137.76 272.192 135.15C269.747 121.603 264.174 111.801 255.473 105.742C242.42 96.655 220.18 91.4618 214.828 110.462C211.261 123.129 213.406 138.518 221.263 156.63L217.991 159.461C205.119 163.914 194.604 169.411 186.445 175.952C174.207 185.763 173.973 195.333 173.324 203.227C172.891 208.49 172.539 212.699 172.269 215.855Z" fill="#F5F5F5"/>
<path d="M145.96 161.15C146.069 160.121 146.118 159.085 146.237 158.058C146.243 158.002 146.766 157.884 146.916 157.987C148.316 158.949 149.7 159.934 151.056 160.956C151.424 161.233 151.453 161.508 151.619 160.783C151.88 159.651 153.491 159.335 154.456 160.14C156.669 161.985 157.786 164.466 158.595 167.165C159.298 169.505 159.019 171.884 159.088 174.249C159.132 175.767 160.553 176.911 162.045 176.973C163.148 177.018 164.309 177.502 165.301 178.049C167.702 179.374 169.246 181.463 170.005 184.096C170.822 186.931 170.062 189.454 168.419 191.81C166.924 193.952 165.563 196.196 163.395 197.767C162.195 198.636 160.813 199.357 159.873 200.454C158.865 201.633 157.707 202.401 156.333 202.931C152.95 204.237 149.253 202.544 147.597 199.723C145.847 196.001 139.6 199.034 137.18 193.543C135.959 191.731 135.483 190.212 135.747 190.06C136.069 189.874 135.624 189.405 135.055 188.808C132.569 186.197 130.361 183.369 128.851 180.059C128.613 179.536 128.367 178.998 128.262 178.44C128.198 178.098 128.294 177.609 128.516 177.373C128.655 177.224 129.211 177.331 129.492 177.485C129.913 177.715 130.247 178.1 130.636 178.395C131.299 178.899 131.667 178.685 131.487 177.899C130.977 175.666 131.446 173.546 132.231 171.497C132.655 170.392 133.344 169.384 133.984 168.377C134.045 168.281 134.66 168.426 134.928 168.599C135.424 168.92 135.854 169.345 136.312 169.726C136.343 169.116 136.352 168.503 136.412 167.896C136.448 167.535 136.537 167.174 136.646 166.827C137.194 165.087 137.489 164.999 138.94 166.09C139.135 166.236 139.368 166.332 139.583 166.45C139.613 166.229 139.652 166.008 139.67 165.786C139.831 163.875 139.448 162.14 138.051 160.721C138.034 160.704 138.337 160.206 138.512 160.192C140.524 160.034 142.538 159.95 144.379 161.026C144.755 161.245 145.131 161.467 145.565 161.746C145.74 161.587 145.936 161.378 145.96 161.15Z" fill="#F5F5F5"/>
<path fill-rule="evenodd" clip-rule="evenodd" d="M175.806 90.8413C169.862 95.7677 167.167 102.9 167.72 112.238C168.549 126.244 184.844 136.223 192.726 131.999C200.607 127.776 209.31 121.623 210.35 108.525C210.791 120.988 212.097 127.054 195.294 136.092C178.491 145.131 160.924 131.106 158.383 125.326C155.843 119.545 149.726 106.785 162.14 91.9803C163.839 90.0223 168.395 89.6427 175.806 90.8413Z" fill="#F5F5F5"/>
<path fill-rule="evenodd" clip-rule="evenodd" d="M317.43 254.723C318.868 254.566 320.193 254.439 321.508 254.244C324.494 253.801 327.474 253.314 330.46 252.864C332.236 252.597 334.04 252.467 335.791 252.089C337.02 251.824 338.134 251.997 339.265 252.369C339.447 252.429 339.587 252.619 339.746 252.748C339.555 252.855 339.373 253.032 339.171 253.058C336.546 253.389 333.914 253.665 331.293 254.024C328.658 254.384 326.035 254.84 323.401 255.217C321.566 255.479 319.72 255.665 317.883 255.911C316.925 256.039 315.977 256.245 315.019 256.372C313.663 256.553 312.299 256.674 310.943 256.856C309.352 257.07 307.768 257.336 306.178 257.556C304.9 257.733 303.615 257.862 302.336 258.036C300.707 258.259 299.082 258.512 297.454 258.74C296.253 258.908 295.05 259.061 293.847 259.214C292.58 259.376 291.307 259.502 290.046 259.698C289.282 259.817 288.579 259.811 288.353 258.933C288.146 258.131 288.555 257.503 289.336 257.331C290.404 257.094 291.501 256.964 292.593 256.861C293.889 256.739 295.192 256.686 296.492 256.616C298.093 256.53 299.697 256.486 301.295 256.37C302.996 256.248 304.692 256.052 306.392 255.908C308.391 255.739 310.394 255.615 312.39 255.423C313.428 255.322 314.455 255.113 315.489 254.962C316.095 254.873 316.705 254.802 317.43 254.723Z" fill="#F5F5F5"/>
<path fill-rule="evenodd" clip-rule="evenodd" d="M286.24 243.651C287.678 243.573 289.001 243.518 290.32 243.411C291.721 243.298 293.115 243.109 294.516 243C296.089 242.878 297.667 242.829 299.24 242.712C301.025 242.579 302.805 242.392 304.589 242.255C305.908 242.154 307.233 242.117 308.552 242.011C310.206 241.879 311.855 241.688 313.51 241.556C314.828 241.45 316.153 241.417 317.472 241.311C319.215 241.172 320.952 240.913 322.697 240.854C324.687 240.788 326.686 240.168 328.675 240.855C328.912 240.936 329.127 241.08 329.353 241.196C329.139 241.236 328.926 241.291 328.71 241.314C327.201 241.475 325.689 241.611 324.182 241.788C322.351 242.003 320.528 242.285 318.695 242.472C317.354 242.608 315.999 242.599 314.657 242.727C312.817 242.902 310.985 243.167 309.146 243.352C307.811 243.486 306.468 243.543 305.131 243.654C303.386 243.798 301.642 243.957 299.899 244.119C298.311 244.267 296.723 244.416 295.137 244.588C293.112 244.807 291.092 245.077 289.065 245.277C287.142 245.467 285.211 245.573 283.287 245.759C281.949 245.889 280.622 246.135 279.282 246.239C278.76 246.28 278.177 246.167 277.698 245.954C277.355 245.802 277.139 245.367 276.867 245.058C277.213 244.822 277.542 244.414 277.907 244.379C280.127 244.167 282.356 244.047 284.58 243.879C285.097 243.839 285.609 243.729 286.24 243.651Z" fill="#F5F5F5"/>
<path fill-rule="evenodd" clip-rule="evenodd" d="M163.913 273.089C163.792 273.185 163.729 273.259 163.669 273.257C163.119 273.241 162.57 273.212 162.021 273.187C162.546 272.825 163.025 272.268 163.603 272.136C165.877 271.615 167.925 270.697 169.822 269.343C172.301 267.573 173.832 265.253 174.389 262.288C174.475 261.831 174.347 261.627 173.795 261.629C173.009 261.634 172.22 261.505 171.434 261.416C169.896 261.242 168.672 260.155 168.537 258.858C168.451 258.027 169.699 256.286 170.621 255.837C172.766 254.792 175.149 256.855 175.758 258.642C176.004 259.361 176.12 259.1 176.444 258.804C177.975 257.405 178.476 255.609 178.354 253.636C178.224 251.527 177.295 249.831 175.466 248.645C174.832 248.233 174.589 247.648 175.08 246.901C175.616 246.086 177.103 246.031 177.684 246.751C178.47 247.726 179.159 248.848 179.592 250.016C180.644 252.847 180.374 255.599 178.606 258.132C178.479 258.313 178.375 258.523 178.212 258.664C176.824 259.869 176.076 261.369 175.512 263.136C173.838 268.378 169.996 271.472 164.788 273.021C164.537 273.096 164.244 273.031 163.913 273.089ZM170.996 257.237C169.991 257.832 169.717 259.541 170.668 259.838C171.767 260.182 173.037 259.992 174.233 260.004C174.284 260.004 174.37 259.703 174.386 259.538C174.543 257.931 173.036 256.822 170.996 257.237Z" fill="#1AB3FF"/>
<path fill-rule="evenodd" clip-rule="evenodd" d="M304.204 248.775C307.522 248.46 310.721 248.121 313.924 247.838C316.194 247.638 318.473 247.536 320.744 247.35C322.146 247.235 323.542 247.05 324.939 246.883C326.868 246.654 328.797 246.227 330.722 246.248C331.82 246.261 333.097 246.618 333.845 247.729C333.903 247.815 333.968 247.897 334.03 247.98C333.885 248.009 333.729 248.087 333.596 248.059C331.086 247.527 328.617 248.042 326.126 248.272C324.39 248.432 322.624 248.241 320.877 248.32C319.123 248.399 317.375 248.624 315.623 248.773C313.689 248.938 311.752 249.066 309.821 249.257C308.783 249.36 307.759 249.59 306.722 249.713C305.183 249.896 303.635 250.013 302.096 250.198C300.335 250.409 298.573 250.621 296.824 250.912C294.745 251.258 292.685 251.718 290.607 252.074C288.549 252.426 286.488 252.803 284.412 252.986C283.466 253.069 282.465 252.775 281.52 252.531C280.793 252.344 280.958 251.833 281.421 251.497C281.795 251.226 282.253 250.99 282.702 250.92C284.052 250.709 285.417 250.582 286.776 250.429C288.213 250.268 289.649 250.089 291.089 249.962C293.139 249.781 295.194 249.663 297.244 249.475C298.489 249.362 299.726 249.148 300.97 249.017C302.006 248.908 303.047 248.854 304.204 248.775Z" fill="#F5F5F5"/>
<path fill-rule="evenodd" clip-rule="evenodd" d="M282.199 239.011C284.936 238.699 287.554 238.369 290.177 238.08C291.881 237.892 293.594 237.784 295.298 237.597C296.294 237.487 297.278 237.282 298.271 237.14C298.953 237.043 299.641 236.988 300.324 236.901C302.414 236.633 304.5 236.327 306.594 236.095C308.724 235.859 310.864 235.714 312.995 235.49C314.947 235.285 316.889 234.965 318.844 234.826C319.547 234.776 320.288 235.066 320.986 235.284C321.218 235.356 321.37 235.688 321.558 235.901C321.291 235.989 321.028 236.136 320.756 236.156C319.234 236.265 317.708 236.32 316.187 236.44C314.581 236.567 312.978 236.732 311.376 236.907C310.148 237.04 308.927 237.226 307.7 237.368C306.228 237.537 304.75 237.653 303.282 237.847C301.127 238.131 298.98 238.474 296.828 238.774C294.496 239.098 292.157 239.368 289.831 239.724C287.821 240.032 285.829 240.446 283.823 240.781C281.188 241.223 278.545 241.621 275.909 242.064C274.947 242.226 274.362 241.677 274.275 240.912C274.197 240.22 274.806 239.967 275.586 239.915C277.633 239.779 279.669 239.483 281.708 239.237C281.84 239.221 281.957 239.089 282.199 239.011Z" fill="#F5F5F5"/>
<path fill-rule="evenodd" clip-rule="evenodd" d="M312.778 263.563C310.224 263.882 307.787 264.195 305.352 264.524C304.315 264.664 303.284 264.934 302.248 264.947C301.911 264.951 301.242 264.259 301.294 264.007C301.4 263.496 301.838 262.733 302.239 262.663C303.945 262.367 305.687 262.292 307.416 262.125C308.975 261.973 310.532 261.8 312.092 261.649C313.82 261.482 315.549 261.321 317.279 261.17C319.216 261.002 321.154 260.838 323.093 260.693C324.421 260.594 325.754 260.555 327.081 260.443C328.642 260.312 330.197 260.112 331.757 259.976C333.006 259.868 334.262 259.841 335.509 259.723C336.797 259.601 338.077 259.41 339.361 259.255C339.516 259.236 339.687 259.215 339.83 259.259C340.327 259.412 340.814 259.592 341.305 259.762C340.872 259.912 340.45 260.139 340.006 260.198C337.377 260.543 334.741 260.839 332.111 261.172C330.36 261.393 328.616 261.671 326.865 261.88C325.257 262.072 323.64 262.183 322.033 262.375C321.186 262.477 320.357 262.726 319.51 262.82C317.708 263.019 315.899 263.152 314.095 263.33C313.691 263.369 313.295 263.483 312.778 263.563Z" fill="#F5F5F5"/>
<path fill-rule="evenodd" clip-rule="evenodd" d="M117.242 186.628C120.019 184.082 123.01 182.004 126.363 180.471C126.493 180.411 126.626 180.267 126.742 180.283C127.245 180.352 127.743 180.466 128.243 180.563C127.881 180.81 127.544 181.111 127.154 181.296C123.275 183.135 119.662 185.365 116.722 188.561C113.866 191.667 111.818 195.152 111.366 199.504C110.951 203.504 111.458 207.245 113.721 210.619C114.936 212.43 116.575 213.781 118.568 214.678C118.726 214.75 118.875 214.842 119.028 214.924C118.85 214.96 118.673 215.003 118.494 215.031C116.032 215.413 114.75 213.597 113.519 212.05C111.54 209.563 110.599 206.621 110.181 203.418C109.787 200.396 110.343 197.588 111.436 194.895C112.712 191.749 114.709 189.026 117.242 186.628Z" fill="#1E1E3E"/>
<path fill-rule="evenodd" clip-rule="evenodd" d="M271.285 238.309C270.867 237.389 271.473 236.37 272.435 236.379C274.079 236.394 275.723 236.504 277.366 236.587C278.623 236.651 279.88 236.733 281.137 236.807C281.288 236.816 281.479 236.769 281.584 236.84C281.934 237.076 282.252 237.353 282.583 237.615C282.264 237.772 281.955 238.04 281.625 238.065C280.606 238.141 279.571 238.214 278.558 238.122C276.766 237.96 275.072 238.363 273.416 238.87C272.515 239.145 271.947 238.858 271.285 238.309Z" fill="#F5F5F5"/>
<path fill-rule="evenodd" clip-rule="evenodd" d="M33.8456 162.481C33.6112 163.904 33.3516 165.206 33.1514 166.518C33.0245 167.349 32.9962 168.194 32.9056 169.031C32.7578 170.398 32.498 171.759 32.4583 173.128C32.3623 176.442 32.3925 179.759 32.3217 183.074C32.2535 186.271 32.8697 189.365 33.615 192.445C33.7597 193.044 33.8035 193.748 34.1584 194.195C34.703 194.879 34.1973 195.212 33.815 195.316C33.4498 195.417 32.7371 195.238 32.5906 194.962C32.1893 194.208 31.9175 193.356 31.753 192.512C31.3362 190.373 30.8309 188.229 30.6843 186.066C30.4859 183.138 30.6235 180.19 30.5548 177.252C30.4715 173.69 30.9962 170.194 31.4855 166.683C32.293 160.888 33.4477 155.175 35.2789 149.613C35.5 148.942 35.9963 148.293 36.5248 147.807C37.1703 147.213 38.1648 147.756 38.3071 148.652C38.4754 149.713 37.9921 150.524 37.4094 151.326C35.6551 153.74 34.7781 156.492 34.3147 159.4C34.1573 160.388 34.0019 161.376 33.8456 162.481Z" fill="#F5F5F5"/>
<path fill-rule="evenodd" clip-rule="evenodd" d="M45.6748 187.751C45.5922 188.478 46.9017 189.351 45.4418 189.626C45.0469 189.7 44.1831 188.911 44.0014 188.377C43.4512 186.757 42.9186 185.084 42.7707 183.4C42.5665 181.075 42.7195 178.722 42.7195 176.381C42.7195 176.11 42.7195 175.838 42.7195 175.567C42.7195 171.881 42.7363 168.195 42.7082 164.51C42.7008 163.533 42.4722 162.554 42.5008 161.581C42.5217 160.864 42.6703 160.096 42.9999 159.462C43.2355 159.008 43.844 158.506 44.3265 158.467C44.658 158.439 45.3231 159.138 45.3772 159.565C45.5187 160.681 45.4617 161.83 45.3782 162.96C45.3133 163.837 45.0054 164.698 44.9525 165.575C44.8203 167.765 44.7627 169.959 44.692 172.151C44.6006 174.99 44.3419 177.838 44.5005 180.665C44.6317 183.001 45.2644 185.312 45.6748 187.751Z" fill="#F5F5F5"/>
<path fill-rule="evenodd" clip-rule="evenodd" d="M56.849 183.021C54.6306 179.591 52.977 175.969 51.9423 172.08C51.7336 171.296 51.915 170.302 52.209 169.521C52.3503 169.146 53.3316 168.725 53.6493 168.892C54.0802 169.119 54.4233 169.87 54.4827 170.431C54.7124 172.601 54.8602 174.748 55.5756 176.858C56.4449 179.423 57.9359 181.564 59.38 183.763C59.6805 184.22 60.5796 184.672 59.9455 185.253C59.3137 185.831 58.6716 185.161 58.1951 184.63C57.7472 184.13 57.3343 183.598 56.849 183.021Z" fill="#F5F5F5"/>
<path fill-rule="evenodd" clip-rule="evenodd" d="M67.0309 175.672C65.6967 174.374 64.3607 173.19 63.1661 171.871C62.5448 171.185 62.6613 170.313 63.4081 169.658C64.1528 169.005 64.6187 169.614 65.0477 170.111C66.6709 171.991 68.2714 173.893 69.8732 175.792C69.964 175.9 70.0601 176.171 70.0371 176.187C69.7752 176.368 69.4367 176.703 69.2219 176.637C68.4883 176.413 67.796 176.044 67.0309 175.672Z" fill="#F5F5F5"/>
<path fill-rule="evenodd" clip-rule="evenodd" d="M137.32 333.497C140.337 334.252 143.249 334.966 146.123 335.8C146.65 335.953 147.025 336.59 147.47 337.003C146.846 337.043 146.182 337.235 145.603 337.097C142.618 336.382 139.627 335.664 136.69 334.788C133.809 333.929 130.988 332.879 128.143 331.907C128.007 331.861 127.895 331.756 127.764 331.691C127.068 331.343 126.326 330.989 126.874 330.054C127.38 329.192 128.168 329.213 128.948 329.654C130.091 330.3 131.143 331.115 132.334 331.657C133.906 332.372 135.575 332.893 137.32 333.497Z" fill="#F5F5F5"/>
<path fill-rule="evenodd" clip-rule="evenodd" d="M141.26 324.612C142.487 325.32 143.663 325.95 144.812 326.628C145.056 326.772 145.201 327.089 145.392 327.327C144.985 327.489 144.489 327.892 144.185 327.776C141.746 326.845 139.336 325.834 136.932 324.812C135.611 324.251 134.306 323.648 133.019 323.011C132.299 322.655 131.478 322.282 132.102 321.179C132.491 320.49 133.414 320.32 134.273 320.789C136.579 322.048 138.891 323.298 141.26 324.612Z" fill="#F5F5F5"/>
<path fill-rule="evenodd" clip-rule="evenodd" d="M134.48 311.539C134.433 309.846 135.518 309.131 136.927 309.967C139.323 311.388 141.658 312.915 143.999 314.428C144.697 314.879 145.357 315.402 145.978 315.955C146.211 316.162 146.285 316.548 146.431 316.853C146.025 316.845 145.564 316.963 145.223 316.809C143.219 315.904 141.236 314.95 139.26 313.984C137.676 313.21 136.112 312.396 134.48 311.539Z" fill="#F5F5F5"/>
<path fill-rule="evenodd" clip-rule="evenodd" d="M142.604 299.748C144.663 299.775 145.754 301.144 146.93 302.356C147.268 302.704 147.541 303.139 147.744 303.579C147.945 304.015 148.217 304.611 147.658 304.906C147.407 305.039 146.85 304.776 146.514 304.566C145.549 303.964 144.639 303.277 143.678 302.668C143.332 302.449 142.849 302.429 142.524 302.192C142.049 301.847 141.66 301.389 141.234 300.979C141.653 300.569 142.071 300.158 142.604 299.748Z" fill="#F5F5F5"/>
<path fill-rule="evenodd" clip-rule="evenodd" d="M149.187 266.306C150.885 269.83 152.247 273.465 152.701 277.386C152.945 279.488 153.224 281.589 153.39 283.698C153.541 285.613 153.658 287.54 153.615 289.458C153.564 291.753 153.316 294.042 153.175 296.335C153.077 297.93 153.061 299.531 152.926 301.122C152.736 303.36 152.431 305.588 152.247 307.827C152.107 309.521 152.014 311.225 152.018 312.925C152.022 314.859 152.161 316.792 152.234 318.727C152.317 320.934 152.13 323.19 152.53 325.338C153.128 328.551 153.949 331.753 155.014 334.843C156.58 339.386 159.289 343.334 162.278 347.052C164.124 349.348 166.254 351.387 169.254 352.178C169.293 352.189 169.327 352.55 169.25 352.617C168.143 353.585 166.766 353.191 165.599 353.036C162.989 352.687 160.408 352.071 157.844 351.444C151.33 349.851 144.824 348.22 138.33 346.548C135.166 345.733 132.037 344.784 128.885 343.918C128.422 343.79 127.824 343.579 127.46 343.757C125.623 344.658 124.203 343.668 122.853 342.753C119.893 340.746 118.214 337.833 117.344 334.409C116.143 329.686 117.108 325.179 118.851 320.811C120 317.93 121.371 315.133 122.747 312.35C124.144 309.526 125.897 306.916 128.022 304.582C128.741 303.793 129.613 303.148 130.394 302.413C131.464 301.406 131.52 300.024 131.608 298.708C131.71 297.182 131.479 295.62 131.698 294.119C132.442 289.017 134.693 284.436 137.061 279.951C138.241 277.715 139.74 275.59 141.405 273.687C142.64 272.275 144.264 271.132 146.177 270.59C146.764 270.423 146.929 270.289 146.492 269.558C145.859 268.498 144.969 267.268 146.088 265.85C147.427 264.51 148.394 264.66 149.187 266.306ZM150.967 276.945C150.921 276.991 150.845 277.03 150.835 277.083C150.748 277.531 150.738 278.004 150.585 278.427C149.908 280.293 149.384 282.249 148.447 283.979C146.569 287.447 144.17 290.571 141.337 293.337C138.867 295.748 136.361 298.123 133.912 300.554C132.516 301.941 131.079 303.314 129.876 304.862C127.947 307.344 125.919 309.816 124.443 312.566C122.727 315.761 121.441 319.208 120.199 322.629C119.419 324.778 118.89 327.056 118.563 329.322C118.212 331.756 118.681 334.185 119.782 336.404C120.594 338.04 121.737 339.396 123.609 339.985C125.848 340.691 128.046 341.524 130.28 342.246C135.236 343.85 140.176 345.517 145.176 346.972C148.92 348.061 152.739 348.903 156.543 349.772C158.697 350.264 160.889 350.597 163.069 350.972C163.241 351.001 163.454 350.794 163.648 350.697C163.55 350.559 163.466 350.41 163.353 350.285C162.557 349.403 161.67 348.588 160.971 347.634C159.048 345.01 156.941 342.472 155.385 339.638C152.623 334.607 150.772 329.213 150.357 323.411C150.229 321.625 150.049 319.842 149.893 317.824C149.893 315.584 149.803 313.339 149.921 311.105C150.022 309.19 150.366 307.288 150.594 305.379C150.759 304 150.814 302.6 151.084 301.243C151.601 298.648 151.358 297.601 149.151 296.121C148.125 295.433 146.836 294.769 146.787 293.329C146.766 292.719 147.254 291.996 147.715 291.524C147.854 291.382 148.838 291.779 149.159 292.161C149.885 293.027 150.434 294.041 151.07 294.986C151.172 295.138 151.348 295.24 151.49 295.366C151.582 295.208 151.741 295.057 151.756 294.893C151.854 293.795 151.99 292.693 151.984 291.594C151.975 290.181 151.835 288.769 151.769 287.356C151.681 285.461 151.619 283.566 151.529 281.672C151.466 280.323 151.39 278.975 151.285 277.629C151.267 277.394 151.078 277.173 150.967 276.945ZM146.147 272.12C143.637 272.985 141.911 274.828 140.553 276.96C137.842 281.214 135.684 285.763 134.275 290.613C133.619 292.872 133.339 295.246 134.218 297.567C134.27 297.703 134.631 297.873 134.657 297.846C138.017 294.294 141.393 290.756 144.694 287.15C148.063 283.47 149.335 279.08 148.706 274.16C148.42 271.927 148.263 271.871 146.147 272.12ZM326.586 228.193C327.642 228.307 328.848 228.852 329.601 229.595C331.502 231.472 333.188 233.569 334.955 235.582C336.039 236.816 337.124 238.05 338.19 239.299C340.438 241.931 342.669 244.579 344.918 247.21C345.617 248.027 346.364 248.802 347.066 249.617C347.267 249.851 347.385 250.156 347.541 250.429C347.32 250.248 347.081 250.084 346.88 249.883C341.565 244.562 336.271 239.219 330.932 233.921C329.185 232.187 327.198 230.719 324.8 230.035C322.274 229.314 319.699 229.069 317.051 229.503C315.717 229.722 314.317 229.496 312.949 229.551C309.907 229.673 306.867 229.873 303.824 229.985C302.041 230.05 300.251 229.946 298.47 230.029C296.563 230.117 294.662 230.333 292.76 230.496C291.009 230.646 289.258 230.787 287.51 230.958C286.125 231.093 284.746 231.284 283.361 231.42C281.601 231.594 279.833 231.699 278.078 231.907C276.59 232.084 275.116 232.376 273.633 232.599C271.983 232.846 270.329 233.061 268.68 233.31C266.142 233.693 263.604 234.087 261.071 234.503C260.977 234.519 260.821 234.885 260.875 234.962C261.344 235.639 261.827 236.309 262.357 236.938C265.002 240.08 267.683 243.192 270.314 246.346C273.297 249.922 276.184 253.579 279.218 257.11C281.347 259.588 283.445 262.145 286.45 263.672C286.547 263.721 286.632 263.791 286.723 263.851C286.613 263.869 286.491 263.929 286.395 263.9C284.56 263.362 282.645 263.141 281.305 261.405C278.83 258.201 276.165 255.145 273.62 251.994C270.471 248.096 267.477 244.065 263.736 240.689C263.431 240.415 263.113 240.129 262.751 239.949C261.95 239.549 261.213 239.415 260.588 240.363C259.343 242.25 257.986 244.062 256.743 245.95C255.914 247.21 256.183 247.827 257.682 248.847C261.63 251.533 265.918 253.445 270.506 254.749C272.417 255.291 274.311 255.979 275.669 257.587C275.765 257.701 275.868 257.81 275.968 257.921C275.806 257.905 275.634 257.922 275.485 257.869C269.307 255.684 263.122 253.52 256.964 251.277C255.952 250.908 255.021 250.256 254.137 249.617C253.573 249.209 253.6 248.598 253.968 247.941C255.233 245.688 256.444 243.403 257.663 241.123C257.746 240.968 257.782 240.611 257.753 240.601C257.442 240.494 257.099 240.34 256.793 240.386C255.515 240.581 254.227 240.764 252.978 241.09C250.16 241.826 247.362 242.639 244.561 243.442C244.398 243.489 244.29 243.735 244.157 243.888C244.865 244.441 245.574 244.994 246.341 245.606C249.308 248.188 252.219 250.709 255.125 253.237C256.681 254.591 258.227 255.956 259.778 257.316C259.842 257.372 259.908 257.424 259.973 257.479C259.826 257.503 259.667 257.577 259.535 257.544C257.651 257.068 255.805 256.588 254.264 255.229C250.583 251.985 246.812 248.843 243.099 245.636C242.335 244.977 241.594 244.267 240.965 243.481C240.177 242.495 240.357 241.815 241.601 241.335C242.584 240.956 243.657 240.782 244.706 240.615C247.832 240.115 250.964 239.648 254.098 239.199C255.475 239.001 256.864 238.886 258.244 238.714C258.491 238.683 258.727 238.56 258.967 238.48C258.848 238.286 258.756 238.065 258.604 237.901C257.395 236.595 256.175 235.3 254.957 234.002C254.849 233.888 254.736 233.779 254.625 233.668C254.798 233.627 254.969 233.571 255.145 233.545C258.354 233.071 261.562 232.595 264.773 232.133C266.881 231.83 268.988 231.516 271.103 231.267C273.267 231.013 275.438 230.807 277.609 230.627C279.551 230.467 281.501 230.399 283.443 230.238C284.687 230.134 285.92 229.889 287.164 229.788C288.72 229.663 290.283 229.643 291.841 229.536C293.786 229.403 295.728 229.207 297.673 229.077C299.309 228.968 300.95 228.938 302.585 228.828C303.905 228.739 305.217 228.544 306.537 228.464C307.826 228.386 309.12 228.395 310.413 228.365C313.758 228.286 317.104 228.191 320.45 228.136C322.497 228.102 324.562 227.975 326.586 228.193ZM131.979 220.295C132.871 220.388 133.784 220.267 134.683 220.321C136.875 220.45 139.063 220.652 141.255 220.775C143.296 220.889 145.346 220.866 147.381 221.038C149.465 221.215 150.712 222.085 150.579 224.582C150.458 226.834 150.417 229.091 150.337 231.345C150.262 233.443 150.181 235.54 150.108 237.638C150.097 237.948 150.108 238.26 150.128 238.57C150.146 238.839 150.19 239.106 150.222 239.373C150.145 239.374 150.009 239.397 150 239.371C149.889 239.081 149.747 238.79 149.712 238.488C149.59 237.429 149.51 236.366 149.409 235.305C149.257 233.722 149.104 232.14 148.944 230.558C148.863 229.758 148.771 228.959 148.677 228.16C148.619 227.664 148.562 227.167 148.474 226.675C148.437 226.466 148.321 226.271 148.241 226.069C148.077 226.163 147.88 226.223 147.754 226.354C146.216 227.952 145.165 229.816 144.762 232.034C144.717 232.277 144.571 232.501 144.472 232.733C144.39 232.528 144.322 232.314 144.224 232.117C142.427 228.522 139.598 226.134 135.733 225.317C133.967 224.944 132.061 225.262 130.218 225.251C129.29 225.245 129.137 225.778 129.217 226.57C129.393 228.293 129.525 230.021 129.69 231.746C129.914 234.093 130.155 236.439 130.383 238.785C130.543 240.432 130.673 242.082 130.861 243.726C130.913 244.188 131.124 244.631 131.256 245.085C131.317 245.297 131.365 245.514 131.418 245.728C131.183 245.564 130.799 245.445 130.736 245.229C130.418 244.141 130.185 243.028 129.92 241.924C129.612 240.642 129.301 239.361 128.992 237.962C128.682 235.779 128.257 233.724 128.092 231.647C127.858 228.711 127.409 225.743 128.063 222.82C128.433 221.166 130.321 220.123 131.979 220.295ZM125.686 226.063C126.169 226.233 126.533 226.748 126.949 227.113C126.662 227.446 126.423 227.848 126.078 228.1C125.322 228.651 124.421 229.026 123.743 229.655C122.132 231.147 122.894 234.113 124.566 234.896C125.338 235.258 126.108 235.626 126.853 236.039C127.123 236.188 127.317 236.477 127.545 236.703C127.267 236.71 126.989 236.717 126.711 236.724C124.926 236.771 123.587 235.946 122.587 234.51C121.08 232.348 121.88 230.233 123.654 228.541C123.821 228.382 123.973 228.205 124.144 228.05C124.364 227.85 124.596 227.664 124.823 227.472C124.382 227.416 123.895 227.21 123.507 227.33C122.058 227.78 121.236 228.99 120.797 230.314C119.286 234.862 122.856 238.546 126.907 238.072C127.335 238.022 127.797 238.273 128.243 238.384C128.136 238.452 128.036 238.545 127.92 238.583C124.528 239.688 121.639 238.435 120.001 235.159C119.888 234.933 119.733 234.728 119.598 234.397C118.814 230.38 120.488 227.384 124.161 226.186C124.642 226.029 125.243 225.906 125.686 226.063ZM129.816 221.503C129.097 221.668 128.844 222.445 129.225 223.134C129.746 224.078 130.549 224.113 131.517 224.017C133.044 223.866 134.6 223.748 136.122 223.878C138.052 224.043 139.951 224.57 141.881 224.752C143.488 224.904 145.12 224.783 146.857 224.666C147.536 224.626 148.214 224.576 148.894 224.551C149.71 224.521 150.177 223.867 149.737 223.168C149.467 222.739 148.91 222.292 148.436 222.233C146.453 221.985 144.453 221.84 142.456 221.738C141.044 221.666 139.622 221.781 138.21 221.711C136.071 221.604 133.938 221.381 131.8 221.271C131.143 221.237 130.463 221.355 129.816 221.503ZM235.655 213.009C238.017 213.056 240.373 213.438 242.731 213.682C242.907 213.701 243.097 213.756 243.243 213.852C243.551 214.053 243.834 214.292 244.128 214.516C243.753 214.553 243.379 214.599 243.004 214.625C240.652 214.786 238.301 214.957 235.948 215.087C235.557 215.108 235.151 214.857 234.76 214.878C232.329 215.008 229.901 215.201 227.47 215.323C226.922 215.35 226.361 215.089 225.814 215.117C223.461 215.238 221.111 215.434 218.757 215.561C218.327 215.584 217.883 215.33 217.453 215.353C215.021 215.481 212.593 215.674 210.162 215.798C209.654 215.824 209.132 215.565 208.624 215.591C206.27 215.714 203.92 215.91 201.567 216.035C201.098 216.06 200.614 215.803 200.145 215.828C197.714 215.954 195.286 216.145 192.854 216.273C192.424 216.296 191.98 216.042 191.55 216.065C189.119 216.193 186.69 216.38 184.259 216.511C183.868 216.532 183.463 216.281 183.071 216.302C180.64 216.432 178.212 216.624 175.781 216.746C175.234 216.774 174.672 216.512 174.125 216.541C171.772 216.662 169.422 216.857 167.069 216.985C166.639 217.008 166.194 216.754 165.764 216.776C163.333 216.905 160.905 217.095 158.473 217.222C158.004 217.246 157.521 216.99 157.052 217.014C154.659 217.14 152.27 217.333 149.878 217.459C149.409 217.484 148.926 217.227 148.456 217.251C146.025 217.378 143.597 217.57 141.166 217.696C140.697 217.721 140.213 217.464 139.744 217.489C137.391 217.614 135.041 217.806 132.687 217.934C132.257 217.957 131.813 217.703 131.383 217.726C128.951 217.854 126.523 218.04 124.092 218.172C123.74 218.191 123.373 217.941 123.021 217.963C121.016 218.086 119.015 218.273 117.01 218.399C115.645 218.484 114.272 218.447 112.911 218.565C110.966 218.734 109.017 218.92 107.093 219.239C105.587 219.489 104.128 220.032 102.622 220.27C102.198 220.337 101.572 219.877 101.253 219.482C101.118 219.314 101.422 218.544 101.724 218.295C102.964 217.276 104.455 217.103 106.115 217.237C107.149 217.157 108.066 217.083 108.982 216.998C110.646 216.844 112.306 216.634 113.973 216.537C116.173 216.409 118.378 216.293 120.58 216.304C124.277 216.323 127.974 216.497 131.671 216.508C134.419 216.515 137.167 216.371 139.915 216.286C142.235 216.214 144.554 216.128 146.874 216.051C149.31 215.97 151.747 215.894 154.183 215.813C156.502 215.735 158.823 215.679 161.141 215.569C163.897 215.438 166.65 215.24 169.407 215.116C169.993 215.09 170.592 215.346 171.179 215.324C174.676 215.195 178.17 215.018 181.666 214.868C182.302 214.84 182.942 214.9 183.576 214.857C185.656 214.717 187.733 214.527 189.814 214.405C190.283 214.378 190.767 214.638 191.236 214.611C193.356 214.488 195.471 214.294 197.591 214.167C197.982 214.143 198.388 214.398 198.779 214.375C200.859 214.248 202.936 214.053 205.017 213.93C205.486 213.903 205.97 214.164 206.439 214.137C208.558 214.014 210.674 213.816 212.794 213.693C213.262 213.666 213.747 213.927 214.215 213.899C216.257 213.778 218.295 213.576 220.337 213.457C220.844 213.427 221.368 213.691 221.875 213.661C223.918 213.542 225.955 213.346 227.997 213.217C228.348 213.195 228.716 213.447 229.068 213.426C231.265 213.296 233.463 212.965 235.655 213.009ZM235.616 96.7274C240.765 97.2038 245.616 98.8538 250.083 101.403C252.707 102.901 255.148 104.754 257.538 106.617C261.246 109.506 264.159 113.126 266.674 117.074C268.55 120.018 270.19 123.092 271.163 126.44C272.049 129.483 272.841 132.577 273.335 135.702C273.692 137.959 273.481 140.303 273.547 142.608C273.615 144.963 273.368 147.286 273.117 149.629C272.505 155.349 271.432 160.951 269.825 166.478C269.128 168.876 269.631 171.358 270.088 173.786C270.488 175.913 271.226 177.9 272.359 179.749C272.495 179.972 272.484 180.284 272.542 180.555C272.251 180.536 271.946 180.57 271.674 180.49C269.71 179.916 269.073 178.315 268.605 176.562C268.269 175.304 267.966 174.02 267.453 172.831C266.866 171.471 266.638 171.6 265.351 172.241C262.7 173.561 260.005 174.814 257.254 175.909C253.527 177.391 249.607 178.16 245.642 178.781C243.49 179.118 241.317 179.774 239.696 181.345C238.942 182.075 238.358 183.112 238.037 184.117C237.635 185.376 237.544 186.703 238.292 188.006C238.735 188.779 239.202 188.909 239.94 188.706C243.521 187.721 247.077 186.628 250.692 185.788C253.469 185.143 256.331 184.873 259.136 184.334C262.047 183.776 264.978 183.639 267.926 183.652C268.148 183.653 268.369 183.712 268.591 183.743C268.39 183.79 268.19 183.84 267.989 183.882C265.248 184.442 262.505 184.993 259.767 185.564C257.285 186.083 254.81 186.633 252.329 187.153C249.556 187.734 246.773 188.27 244.006 188.879C242.656 189.177 241.306 189.52 240.004 189.979C238.188 190.619 237.617 191.746 237.517 193.805C237.405 196.123 237.805 198.293 238.363 200.444C239.364 204.306 241.08 207.827 243.854 210.805C246.186 213.308 248.816 215.335 252.159 216.199C253.962 216.665 255.847 216.958 257.706 217.029C260.025 217.117 262.278 216.683 264.477 215.758C267.232 214.601 269.36 212.781 270.939 210.345C272.673 207.67 273.814 204.712 274.226 201.543C274.567 198.913 274.923 196.256 274.903 193.614C274.873 189.805 274.084 186.087 272.61 182.54C272.519 182.32 272.161 182.009 272.864 181.989C274.722 181.935 276.566 183.628 276.591 185.559C276.613 187.325 276.672 189.096 276.579 190.858C276.409 194.05 279.819 198.224 282.63 198.943C283.244 199.101 283.3 198.883 283.149 198.566C281.436 194.941 282.487 191.398 283.505 187.896C285.47 181.134 288.163 174.636 290.86 168.138C293.498 161.784 296.03 155.387 298.59 149.001C300.763 143.585 302.9 138.155 305.07 132.738C307.16 127.522 309.273 122.315 311.378 117.105C311.445 116.938 311.556 116.788 311.622 116.621C311.747 116.304 311.854 115.98 311.969 115.659C311.641 115.88 311.236 116.039 310.999 116.332C308.186 119.801 305.567 123.444 302.557 126.732C299.341 130.247 295.848 133.527 292.31 136.729C289.783 139.016 286.985 141.006 284.302 143.122C284.051 143.32 283.761 143.469 283.489 143.64C283.515 143.324 283.573 143.006 283.562 142.691C283.48 140.273 285.726 140.056 287.077 139C289.111 137.41 291.225 135.915 293.191 134.247C296.854 131.138 299.77 127.344 302.741 123.607C303.544 122.596 304.403 121.631 305.296 120.586C307.9 117.759 310.35 114.896 313.019 112.251C315.36 109.932 317.961 107.904 321.247 106.95C322.713 106.524 325.376 107.501 326.361 109.045C327.389 110.657 327.799 112.424 327.794 114.345C327.783 118.334 326.971 122.197 326.127 126.06C325.208 130.275 324.316 134.497 323.291 138.686C322.69 141.144 321.983 143.592 321.098 145.961C318.992 151.596 316.855 157.224 314.527 162.77C313.202 165.926 311.564 168.963 309.898 171.96C308.975 173.622 307.611 174.889 305.416 174.789C304.517 174.748 303.939 175.794 303.815 177.071C303.635 178.928 303.482 180.801 303.099 182.621C302.323 186.307 300.67 189.658 298.688 192.833C297.191 195.232 295.526 197.527 293.981 199.897C292.91 201.538 291.493 202.863 289.551 202.965C288.335 203.03 287.069 202.259 285.835 201.836C285.634 201.767 285.457 201.58 285.311 201.412C284.706 200.72 284.24 199.698 283.486 199.404C282.78 199.13 281.753 199.821 280.904 199.735C279.452 199.589 278.237 198.836 277.349 197.623C277.176 197.387 276.979 196.837 276.791 197.741C276.279 200.195 275.631 202.625 274.94 205.037C273.681 209.432 271.349 213.211 267.785 216.088C265.577 217.872 263.031 219.053 260.05 219.217C257.026 219.382 254.315 218.563 251.609 217.361C247.779 215.659 244.413 213.339 241.269 210.587C236.758 206.638 233.338 201.907 230.99 196.478C229.677 193.44 228.907 190.159 228.017 186.954C227.121 183.723 225.994 180.625 224.14 177.793C222.46 175.226 221.235 172.419 220.771 169.381C220.616 168.368 220.961 167.241 221.237 166.209C221.787 164.155 222.09 162.081 221.626 160.001C221.394 158.965 220.76 158.024 220.392 157.01C218.919 152.941 217.368 148.895 216.062 144.773C215.162 141.93 214.539 138.991 213.94 136.066C213.556 134.192 213.437 132.265 213.209 130.36C213.043 128.971 212.84 127.583 212.751 126.188C212.622 124.184 212.649 122.169 212.486 120.169C212.276 117.589 212.659 115.034 213.294 112.609C213.915 110.237 215.127 107.988 216.29 105.796C217.636 103.255 219.48 101.074 221.974 99.5297C224.202 98.1504 226.579 97.1258 229.222 96.9319C231.349 96.7758 233.508 96.5325 235.616 96.7274ZM218.664 158.985C218.516 159.229 218.427 159.58 218.211 159.7C216.945 160.4 215.678 161.111 214.357 161.695C212.115 162.686 209.833 163.586 207.451 164.525C203.729 166.182 200.049 167.698 196.538 169.537C193.041 171.37 189.79 173.619 186.755 176.192C182.312 179.959 178.727 184.379 176.411 189.715C175.465 191.896 174.816 194.284 174.5 196.641C174.082 199.76 174.133 202.94 173.965 206.093C173.823 208.739 173.666 211.384 173.494 214.029C173.429 215.026 172.653 214.286 172.246 214.467C172.213 214.482 171.875 214.08 171.896 213.896C172.091 212.137 172.444 210.389 172.535 208.627C172.65 206.405 172.545 204.172 172.567 201.945C172.608 197.676 173.422 193.578 175.198 189.671C176.851 186.034 179.082 182.812 181.729 179.83C185.725 175.329 190.508 171.885 195.723 168.983C200.656 166.238 205.77 163.894 211.064 161.93C213.36 161.078 215.596 160.062 217.866 159.136C218.111 159.036 218.397 159.033 218.664 158.985ZM281.289 210.647C283.317 210.933 285.336 211.287 287.362 211.59C288.597 211.776 289.835 212.007 291.079 212.062C292.901 212.142 294.73 212.052 296.554 212.093C297.892 212.123 299.227 212.237 300.563 212.33C301.509 212.396 302.452 212.545 303.399 212.56C305.588 212.595 307.778 212.595 309.967 212.566C315.097 212.5 320.226 212.356 325.354 212.363C326.665 212.365 327.975 212.816 329.286 213.057C329.362 213.071 329.473 213.024 329.516 213.065C329.815 213.35 330.102 213.651 330.392 213.947C330.013 213.977 329.633 214.03 329.254 214.032C326.66 214.039 324.066 214.058 321.472 214.024C320.448 214.011 319.426 213.827 318.402 213.8C314.642 213.698 310.881 213.621 307.12 213.551C305.778 213.526 304.435 213.547 302.974 213.547C301.293 213.547 299.728 213.577 298.165 213.541C295.773 213.485 293.382 213.345 290.989 213.313C287.965 213.272 284.939 213.361 281.917 213.278C280.502 213.239 279.088 212.964 277.685 212.728C276.9 212.595 276.717 211.869 276.978 211.277C277.157 210.87 277.758 210.441 278.19 210.419C279.217 210.367 280.262 210.503 281.289 210.647ZM221.263 161.676C221.179 161.722 221.071 161.749 221.017 161.817C219.309 163.975 217.41 166.013 215.952 168.327C213.993 171.438 212.376 174.768 211.408 178.348C210.885 180.284 210.507 182.258 210.052 184.213C209.754 185.494 209.078 186.553 207.971 187.263C206.5 188.206 204.942 189.016 203.493 189.99C199.885 192.413 197.599 195.844 196.268 199.915C195.522 202.192 195.053 204.523 195.484 206.963C195.746 208.445 195.855 209.955 196.019 211.455C196.045 211.693 195.996 211.94 195.981 212.183C195.664 212.155 195.196 212.246 195.06 212.074C194.688 211.605 194.286 211.05 194.201 210.484C193.948 208.793 193.848 207.08 193.672 205.377C193.635 205.022 193.529 204.674 193.454 204.323C193.139 204.674 192.777 204.993 192.515 205.38C190.764 207.961 189.039 210.56 187.284 213.138C187.155 213.326 186.855 213.398 186.634 213.524C186.577 213.13 186.345 212.645 186.495 212.359C187.05 211.295 187.658 210.242 188.381 209.286C190.071 207.05 191.988 204.97 193.524 202.637C194.537 201.099 195.086 199.246 195.772 197.507C196.476 195.727 197.586 194.27 199.021 193.03C200.831 191.467 202.634 189.893 204.498 188.266C205.765 186.923 207.12 185.745 208.145 184.328C209.498 182.46 209.978 180.183 210.526 177.966C211.683 173.276 213.744 169.024 216.786 165.258C217.544 164.32 218.262 163.335 219.127 162.504C219.596 162.053 220.331 161.873 220.955 161.59C221.029 161.556 221.159 161.644 221.263 161.676ZM51.8702 120.098C53.1798 120.437 53.3693 121.575 52.3674 122.445C50.0927 124.419 49.0103 126.939 48.8436 129.866C48.7515 131.483 48.9029 133.113 48.8132 134.73C48.5173 140.06 50.0738 144.967 52.3789 149.647C54.5826 154.122 57.7915 157.807 62.3959 159.96C65.0378 161.195 67.8631 162.062 70.6453 162.976C73.062 163.77 75.5383 164.382 77.9808 165.101C80.3769 165.805 82.7372 166.444 85.276 165.597C86.5784 165.163 87.5556 166.328 87.0568 167.59C85.1708 172.363 83.5638 177.318 80.2508 181.343C78.2636 183.757 75.9644 185.991 73.5049 187.929C69.8941 190.775 65.7422 192.804 61.595 194.803C57.55 196.752 53.596 198.89 49.5331 200.801C44.956 202.952 40.3177 204.978 35.6762 206.991C31.9317 208.615 28.1515 210.159 24.3675 211.691C23.4627 212.057 22.4935 212.314 21.5292 212.474C20.563 212.634 18.4404 211.119 18.0612 210.118C17.0989 207.576 16.4448 204.963 16.1747 202.255C16.0103 200.607 15.789 198.964 15.5345 197.319C15.4758 197.202 15.4758 197.086 15.5345 196.911C15.6324 194.656 15.6735 192.461 15.7007 190.265C15.7015 190.204 15.5541 190.142 15.4758 190.081V189.205C15.515 189.147 15.5884 189.148 15.5884 189.147C15.6624 187.114 15.7253 185.081 15.8042 183.049C15.8297 182.392 15.904 181.737 15.9445 181.081C16.2811 175.632 16.9286 170.217 18.3231 164.934C19.4359 160.719 20.9054 156.618 22.6913 152.613C24.7285 148.044 27.2053 143.748 30.0591 139.663C31.5131 137.582 33.1012 135.576 34.7909 133.679C36.8239 131.397 38.9127 129.137 41.1911 127.104C43.7922 124.784 46.5874 122.668 49.3945 120.593C50.0195 120.13 51.1243 119.905 51.8702 120.098ZM48.4569 123.301C48.325 123.36 48.1758 123.397 48.0637 123.482C44.5344 126.157 41.0264 128.859 38.1039 132.216C36.2884 134.301 34.4325 136.357 32.7184 138.523C28.5525 143.787 25.3287 149.589 22.8742 155.99C22.7908 156.229 22.6941 156.464 22.6262 156.706C21.5715 160.475 20.4554 164.228 19.4983 168.02C19.0737 169.703 18.9518 171.463 18.7291 173.193C18.4839 175.097 18.2109 177.001 18.0811 178.913C17.9742 180.489 18.1183 182.081 18.0433 183.66C17.9501 185.622 17.6788 187.576 17.613 189.538C17.5686 190.864 17.7826 192.196 17.8152 193.526C17.8546 195.134 17.7945 196.744 17.8339 198.352C17.8662 199.67 17.8978 200.998 18.0806 202.301C18.3045 203.897 18.7034 205.467 18.9946 207.054C19.4152 209.345 20.3567 210.233 22.6004 210.395C24.173 210.509 25.3682 209.579 25.5883 208.106C25.615 207.927 25.897 207.616 25.9336 207.633C27.9161 208.563 29.6369 207.626 31.3743 206.889C35.0661 205.322 38.7745 203.791 42.4293 202.143C47.8673 199.69 53.2827 197.187 58.6716 194.629C61.1928 193.433 63.6687 192.129 66.0958 190.752C70.8323 188.066 75.1621 184.881 78.6688 180.645C81.3867 177.361 83.0666 173.629 84.0403 169.545C84.2252 168.769 83.9528 168.096 83.0255 167.897C80.5117 167.357 78.0039 166.789 75.4863 166.268C70.3694 165.209 65.4231 163.733 60.8245 161.15C54.9197 157.833 51.1371 152.824 48.8656 146.636C47.788 143.701 46.9225 140.659 46.9448 137.462C46.9616 135.062 46.7503 132.641 47.0061 130.268C47.2424 128.075 47.9672 125.934 48.4681 123.768C48.5022 123.621 48.4623 123.457 48.4569 123.301ZM146.916 157.987C148.316 158.949 149.7 159.934 151.056 160.956C151.424 161.233 151.453 161.508 151.619 160.783C151.88 159.651 153.491 159.335 154.456 160.14C156.669 161.985 157.785 164.467 158.595 167.165C159.298 169.505 159.019 171.884 159.088 174.249C159.132 175.767 160.553 176.911 162.045 176.973C163.148 177.018 164.308 177.502 165.301 178.049C167.702 179.374 169.246 181.464 170.005 184.096C170.822 186.931 170.062 189.455 168.419 191.81C166.924 193.952 165.563 196.196 163.395 197.767C162.195 198.636 160.813 199.357 159.873 200.454C158.865 201.633 157.707 202.401 156.333 202.931C152.95 204.237 149.253 202.544 147.597 199.723C146.104 197.181 142.51 197.74 141.117 199.799C140.509 200.698 140.342 201.885 139.888 202.902C139.61 203.526 139.88 203.431 140.297 203.369C142.365 203.061 144.435 202.768 146.505 202.475C146.611 202.46 146.725 202.501 146.835 202.516C146.753 202.579 146.678 202.653 146.589 202.703C144.536 203.863 142.314 204.518 139.991 204.795C138.231 205.005 136.431 205.341 134.696 205.163C133.329 205.023 131.937 204.344 130.729 203.617C129.305 202.759 128.877 201.303 128.905 199.601C128.958 196.297 130.226 193.508 132.319 191.091C132.922 190.395 133.986 190.102 134.833 189.614C135.155 189.429 135.624 189.405 135.054 188.808C132.569 186.197 130.361 183.37 128.851 180.059C128.613 179.536 128.367 178.998 128.262 178.44C128.198 178.098 128.294 177.609 128.516 177.373C128.655 177.224 129.211 177.331 129.492 177.485C129.913 177.715 130.247 178.1 130.636 178.395C131.299 178.899 131.667 178.685 131.487 177.899C130.977 175.666 131.446 173.546 132.231 171.497C132.655 170.392 133.344 169.384 133.984 168.377C134.045 168.281 134.66 168.426 134.928 168.599C135.424 168.92 135.854 169.345 136.312 169.726C136.343 169.116 136.352 168.504 136.412 167.896C136.448 167.535 136.537 167.174 136.646 166.827C137.194 165.087 137.489 164.999 138.94 166.09C139.135 166.236 139.368 166.332 139.583 166.451L139.646 166.008C139.656 165.934 139.664 165.86 139.67 165.786C139.83 163.875 139.448 162.14 138.051 160.721C138.034 160.704 138.337 160.206 138.512 160.192C140.524 160.034 142.538 159.95 144.379 161.026C144.755 161.246 145.131 161.467 145.565 161.746C145.74 161.587 145.936 161.378 145.96 161.15C146.069 160.121 146.118 159.085 146.237 158.058C146.243 158.002 146.766 157.884 146.916 157.987ZM133.506 191.272C133.461 191.357 133.432 191.458 133.368 191.525C131.078 193.943 130.01 196.814 130.095 200.145C130.141 201.953 131.105 203.285 132.913 203.615C134.063 203.825 135.255 203.815 136.43 203.847C136.572 203.851 136.804 203.52 136.858 203.309C137.204 201.964 137.18 200.464 138.622 199.433C139.024 199.277 139.427 199.122 139.828 198.965C140.011 198.893 140.334 198.828 140.342 198.738C140.359 198.546 140.267 198.248 140.12 198.157C139.725 197.913 139.293 197.644 138.849 197.582C136.8 197.297 135.347 196.218 134.513 194.359C134.117 193.476 133.901 192.51 133.604 191.582C133.571 191.479 133.539 191.375 133.506 191.272ZM138.972 200.251C138.816 200.84 138.638 201.425 138.527 202.022C138.508 202.122 138.823 202.409 138.914 202.382C139.286 202.269 139.405 200.482 138.972 200.251ZM147.465 159.259C147.59 159.688 147.767 160.11 147.83 160.548C147.973 161.542 147.887 162.493 146.911 163.078C146.13 163.546 145.546 162.984 145.015 162.573C143.81 161.641 142.386 161.519 140.971 161.342C140.199 161.245 140.163 161.563 140.416 162.228C140.787 163.206 141.249 164.245 141.22 165.245C141.202 165.872 140.4 166.519 139.866 167.076C139.367 167.596 138.889 167.35 138.495 166.837C138.434 166.758 138.239 166.784 138.107 166.761C138.116 166.971 138.088 167.192 138.14 167.392C138.45 168.58 138.006 169.728 136.761 170.411C135.898 170.883 135.291 170.162 134.767 169.604C134.372 169.184 134.336 169.439 134.169 169.759C132.714 172.544 132.547 175.456 133.319 178.45C133.511 179.194 133.169 179.564 132.555 179.536C131.839 179.503 131.138 179.222 130.424 179.078C130.093 179.012 129.748 179.017 129.41 178.99C129.502 179.316 129.544 179.666 129.693 179.963C130.928 182.42 132.516 184.643 134.577 186.449C135.793 187.514 136.539 188.449 136.502 190.287C136.455 192.688 137.732 194.651 139.948 195.956C141.714 196.996 143.59 196.779 145.453 196.843C146.405 196.876 147.099 197.205 147.665 197.96L147.891 198.262C149.054 199.822 150.204 201.376 152.285 201.921C154.632 202.536 156.777 202.29 158.587 200.636C158.964 200.291 158.967 199.468 158.984 198.861C158.987 198.751 158.223 198.556 157.801 198.509C156.116 198.321 154.421 198.748 152.72 198.288C150.315 197.637 148.106 196.679 146.285 194.945C145.941 194.618 145.652 194.233 145.338 193.875C145.892 194.006 146.447 194.132 146.999 194.27C147.137 194.305 147.295 194.346 147.394 194.437C149.97 196.81 152.992 197.845 156.487 197.569C160.032 197.289 161.859 195.428 162.042 192.316C162.23 189.102 161.61 185.99 160.131 183.076C159.917 182.655 159.919 182.07 159.971 181.576C160.171 179.66 160.653 177.725 158.595 176.362C158.25 176.133 158.154 175.367 158.13 174.84C158.06 173.278 157.568 172.695 156.044 172.554C155.114 172.468 154.593 171.911 154.381 171.038C154.319 170.785 154.322 170.517 154.296 170.255C154.048 170.478 153.734 170.66 153.564 170.932C152.702 172.312 151.416 173.166 150.063 173.991C149.378 174.41 149.157 174.362 148.987 173.587C148.907 173.222 148.611 172.905 148.413 172.567C148.222 172.838 148.024 173.105 147.842 173.382C147.602 173.748 147.432 174.181 147.13 174.481C146.05 175.555 144.96 176.623 143.796 177.601C143.543 177.814 142.783 177.818 142.59 177.609C142.336 177.334 142.37 176.755 142.358 176.304C142.346 175.855 142.457 175.405 142.459 174.955C142.46 174.778 142.321 174.46 142.231 174.454C142.038 174.443 141.741 174.537 141.653 174.686L141.195 175.457C140.737 176.229 140.288 177.007 139.92 177.821C138.934 180.001 138.53 182.317 138.476 184.709C138.468 185.046 138.109 185.409 137.839 185.688C137.746 185.783 137.269 185.712 137.24 185.625C137.113 185.248 137.015 184.832 137.041 184.439C137.083 183.816 137.244 183.202 137.336 182.582C137.889 178.834 139.511 175.648 142.311 173.084C142.414 172.99 142.772 172.983 142.778 173.004C143.032 173.873 143.27 174.747 143.484 175.627C143.532 175.826 143.488 176.047 143.486 176.258C143.674 176.172 143.883 176.117 144.046 175.997C145.816 174.686 147.234 173.073 148.25 171.106C148.495 170.632 148.837 170.208 149.135 169.762L149.657 170.713C149.831 171.031 150.002 171.349 150.165 171.672C150.228 171.796 150.129 172 150.189 172.127C150.234 172.222 150.496 172.328 150.526 172.298C151.43 171.363 152.299 170.394 153.218 169.474C153.57 169.122 154.233 168.541 154.401 168.644C154.947 168.978 155.349 169.566 155.762 170.09C155.856 170.21 155.704 170.514 155.791 170.653C155.951 170.909 156.293 171.331 156.405 171.288C156.973 171.068 157.544 170.781 158.002 170.388C158.185 170.23 158.082 169.739 157.993 169.283C157.522 166.304 156.345 163.669 154.198 161.51C154.063 161.374 153.923 161.243 153.786 161.109C153.749 161.289 153.712 161.468 153.675 161.648C153.47 162.637 152.406 163.233 151.638 162.634C150.669 161.878 149.9 160.87 148.973 160.052C148.56 159.686 147.973 159.517 147.465 159.259ZM229.505 183.667C229.422 183.75 229.282 183.823 229.267 183.917C229.212 184.251 229.131 184.604 229.183 184.93C229.472 186.714 229.835 188.486 230.103 190.273C230.569 193.39 231.35 196.415 232.96 199.144C233.53 200.111 234.457 200.871 235.235 201.714C235.323 201.809 235.496 201.828 235.63 201.882C235.624 201.799 235.627 201.715 235.611 201.634C235.423 200.66 235.348 199.646 235.018 198.722C234.229 196.519 233.319 194.359 232.341 192.065C231.754 190.475 231.134 188.898 230.592 187.293C230.219 186.189 229.956 185.048 229.639 183.925C229.613 183.834 229.551 183.753 229.505 183.667ZM292.31 178.432C292.305 178.539 292.083 178.628 291.979 178.741C291.698 179.049 291.37 179.333 291.16 179.685C288.848 183.565 287.633 187.836 286.693 192.203C286.443 193.362 286.221 194.526 285.986 195.922C285.908 196.59 285.75 197.261 285.772 197.926C285.797 198.699 285.79 199.565 286.13 200.219C287.085 202.05 289.644 201.998 291.214 201.033C292.668 200.141 293.366 198.702 294.153 197.344C295.494 195.029 296.614 192.583 298.008 190.301C299.904 187.199 301.773 184.108 302.628 180.525C302.885 179.447 302.336 178.712 301.185 178.745C298.477 178.823 295.846 178.289 293.21 177.795C292.324 177.629 292.345 177.583 292.31 178.432ZM161.345 177.947C160.877 179.962 161.177 181.886 161.757 183.788C162.602 186.558 163.523 189.308 163.24 192.268C163.042 194.34 162.112 195.976 160.332 197.119C160.059 197.295 159.936 197.706 159.743 198.008C160.104 198.083 160.467 198.223 160.824 198.209C161.044 198.201 161.282 197.987 161.466 197.816C162.782 196.592 164.258 195.489 165.347 194.086C166.443 192.676 167.151 190.963 168.145 189.266C168.373 188.181 168.643 187.102 168.821 186.009C169.221 183.556 167.992 181.195 165.754 180.362C164.289 179.816 162.684 179.613 162.061 177.833C161.96 177.543 161.581 176.932 161.345 177.947ZM90.4523 124.735C93.3128 125.075 96.1935 125.605 98.9379 126.465C101.879 127.386 104.456 129.138 106.542 131.447C109.386 134.595 111.241 138.253 112.065 142.454C112.414 144.233 112.524 145.999 112.49 147.787C112.469 148.922 112.352 150.055 112.266 151.189C112.083 153.612 112.691 155.918 113.292 158.227C113.908 160.592 113.684 162.963 113.467 165.365C113.146 168.914 111.811 172.125 110.363 175.283C109.43 177.315 108.168 179.202 106.991 181.116C105.996 182.735 104.911 184.3 103.808 185.947C102.32 188.289 100.867 190.56 99.47 192.864C98.8543 193.88 98.3533 194.965 97.7972 196.018C97.7293 196.146 97.6615 196.283 97.5618 196.385C97.2167 196.738 96.8576 197.078 96.5038 197.422C96.4704 196.919 96.2716 196.355 96.4297 195.922C97.6955 192.453 99.6463 189.357 101.762 186.352C104.323 182.713 107.044 179.173 108.86 175.066C110.053 172.367 110.995 169.591 111.327 166.644C111.52 164.937 111.736 163.224 111.775 161.51C111.814 159.808 111.647 158.101 111.561 156.397C111.556 156.312 111.409 156.158 111.401 156.162C111.21 156.271 110.991 156.365 110.854 156.526C110.125 157.384 109.43 158.271 108.7 159.129C106.846 161.308 104.589 162.774 101.74 163.409C98.9257 164.036 96.5597 163.217 94.5603 161.382C92.0266 159.058 92.0647 156.215 93.808 153.525C95.4027 151.063 97.7137 149.758 100.686 149.34C103.592 148.931 106.23 149.738 108.868 150.599C109.843 150.917 110.443 151.259 110.49 149.88C110.542 148.319 110.446 146.736 110.669 145.2C110.956 143.225 110.267 141.501 109.711 139.708C108.609 136.16 106.48 133.383 103.631 131.034C101.446 129.232 98.9942 127.993 96.3208 127.267C93.561 126.517 90.7601 126.174 87.8241 126.471C83.0677 126.954 78.9346 128.775 75.1792 131.559C72.519 133.531 70.4488 136.085 68.6141 138.833C68.3407 139.243 67.8893 139.533 67.5217 139.881C67.0625 140.314 66.4501 140.439 66.1223 139.932C65.8733 139.547 65.7829 138.726 66.0264 138.412L66.5925 137.682C67.7268 136.22 68.8837 134.76 70.2314 133.517C71.8822 131.993 73.7742 130.71 75.6485 129.453C78.7815 127.352 82.2142 125.938 85.967 125.364C87.4654 125.134 89.0026 124.563 90.4523 124.735ZM135.525 192.951C135.507 193.099 135.458 193.251 135.475 193.395C135.634 194.735 136.512 195.623 137.506 196.366C137.838 196.614 138.421 196.528 138.889 196.594C138.642 196.214 138.411 195.822 138.142 195.457C137.982 195.241 137.764 195.068 137.571 194.642C136.999 194.147 136.429 193.649 135.853 193.158C135.755 193.075 135.635 193.02 135.525 192.951ZM320.048 109.88C318.795 110.923 317.549 111.978 316.36 113.091C314.409 114.918 313.173 117.254 312.151 119.648C310.003 124.682 308.017 129.785 305.983 134.867C302.987 142.357 300.007 149.854 297.02 157.582C296.864 157.83 296.663 158.06 296.557 158.327C294.658 163.154 292.777 167.987 290.878 172.813C289.414 176.533 287.86 180.22 286.476 183.969C285.196 187.436 284.368 191.034 283.885 194.701C283.839 195.054 283.958 195.43 284.001 195.795C284.037 195.484 284.024 195.157 284.125 194.87C284.193 194.676 284.503 194.565 284.565 194.372C285.756 190.694 286.848 186.982 288.126 183.333C289.005 180.822 290.109 178.388 291.162 175.94C291.653 174.796 292.092 174.686 293.197 175.232C293.943 175.602 294.702 175.947 295.431 176.347C296.584 176.979 297.805 177.219 299.108 177.104C300.037 177.021 301.198 175.95 301.221 174.952C301.243 173.977 300.81 173.194 299.679 173.091C298.972 173.027 298.249 173.061 297.557 172.927C297.047 172.828 296.576 172.527 296.087 172.316C296.406 172.073 296.702 171.788 297.051 171.602C297.267 171.487 297.564 171.522 297.825 171.492C299.573 171.29 301.057 172.126 302.593 172.725C305.36 173.803 306.92 173.598 308.326 171.752C309.082 170.76 309.588 169.557 310.088 168.398C312.355 163.14 314.762 157.931 316.77 152.575C318.847 147.034 320.783 141.413 322.305 135.701C323.942 129.556 325.736 123.402 326.052 116.98C326.139 115.211 325.987 113.499 325.482 111.753C324.667 108.941 322.013 108.244 320.048 109.88ZM223.837 166.167C223.737 166.359 223.61 166.542 223.542 166.745C222.663 169.35 222.8 171.958 224.017 174.369C225.29 176.894 226.851 179.276 228.3 181.712C228.361 181.816 228.566 181.835 228.705 181.893C228.749 181.705 228.873 181.494 228.826 181.333C228.411 179.911 227.939 178.504 227.55 177.076C227.47 176.781 227.557 176.289 227.763 176.106C228.068 175.834 228.579 175.572 228.947 175.634C230.009 175.811 230.892 177.074 230.997 178.335C231.17 180.417 231.231 182.517 231.546 184.577C232.052 187.892 233.359 190.962 234.812 193.966C234.89 194.129 235.043 194.255 235.162 194.399C235.278 194.213 235.449 194.041 235.501 193.839C235.683 193.132 235.716 192.368 236 191.708C236.998 189.383 236.982 187.149 235.76 184.897C235.092 183.665 234.572 182.353 233.867 180.96C233.37 179.53 233.135 177.926 232.316 176.711C231.054 174.837 229.352 173.262 227.911 171.501C226.639 169.946 225.468 168.31 224.252 166.709L223.837 166.167ZM157.2 188.358C157.467 188.815 157.674 189.239 158.013 189.488C159.288 190.419 159.145 192.928 157.89 193.702C157.609 193.875 157.125 193.729 156.734 193.73C156.734 193.413 156.637 193.056 156.75 192.785C157.544 190.874 156.719 189.308 154.638 188.806C154.312 188.728 154.016 188.53 153.706 188.387C153.991 188.212 154.27 188.027 154.562 187.864C154.875 187.691 155.199 187.538 155.519 187.379C156.723 186.778 156.915 186.877 157.2 188.358ZM159.307 178.365C159.496 179.452 159.438 180.627 159.243 181.721C159.09 182.574 156.852 183.043 155.635 182.885C154.35 182.719 153.558 181.951 152.759 181.133C152.063 180.42 151.27 179.86 150.288 180.256C149.291 180.659 149.253 181.649 149.3 182.703C149.02 184.557 148.482 186.057 146.863 187.155C144.719 188.608 142.25 187.543 141.287 185.782C141.178 185.583 140.985 185.429 140.831 185.255C140.715 185.426 140.562 185.583 140.488 185.77C139.909 187.232 139.281 188.68 138.801 190.174C138.503 191.105 138.928 191.529 139.88 191.519C140.516 191.513 141.153 191.507 141.789 191.525C141.956 191.53 142.12 191.622 142.285 191.673C142.193 191.829 142.137 192.07 142.003 192.125C141.403 192.372 140.691 192.868 140.183 192.721C138.849 192.334 137.68 191.604 137.604 189.95C137.48 187.258 138.926 185.226 140.463 183.245C142.214 180.99 144.798 180.193 147.404 179.455C150.677 178.528 153.949 177.597 157.223 176.674C157.904 176.482 159.121 177.291 159.307 178.365ZM146.79 180.459C145.623 180.923 144.469 181.433 143.353 182.007C141.427 182.998 141.225 184.752 142.829 186.142C144.497 187.588 146.638 187.098 147.267 185.032C147.62 183.873 147.696 182.632 147.897 181.195C147.951 180.326 147.403 180.216 146.79 180.459ZM151.628 181.32C151.73 181.361 151.83 181.414 151.936 181.441C153.52 181.845 154.752 184.425 153.999 185.822C153.85 186.098 153.546 186.286 153.313 186.514C153.255 186.287 153.191 186.061 153.14 185.831C152.991 185.152 152.848 184.471 152.648 183.735C152.287 182.994 151.978 182.309 151.677 181.62C151.638 181.531 151.643 181.421 151.628 181.32ZM156.552 177.391C155.238 177.849 153.975 178.45 152.456 178.992C152.417 179.168 152.292 179.382 152.352 179.514C153.109 181.174 155.953 182.345 157.657 181.72C158.661 181.351 159.218 180.077 158.886 178.903C158.657 178.089 157.309 177.126 156.552 177.391ZM277.276 137.181C279.539 137.402 281.345 138.39 282.722 140.338C283.479 141.408 282.904 142.295 282.726 143.194C282.084 146.434 281.309 149.646 280.574 152.867C279.968 155.519 279.352 158.168 278.732 160.816C277.906 164.345 277.076 167.874 276.24 171.4C275.639 173.938 275.03 176.474 274.409 179.006C274.344 179.271 274.18 179.511 274.061 179.762C273.952 179.498 273.729 179.224 273.75 178.972C273.922 176.972 274.095 174.971 274.356 172.983C274.63 170.89 274.964 168.803 275.338 166.726C275.785 164.247 276.253 161.771 276.796 159.313C278.024 153.746 279.61 148.287 281.425 142.887C282.145 140.742 280.098 139.325 278.441 139.362C277.383 139.386 276.469 139.628 275.497 139.866C275.336 139.905 275.083 139.549 274.873 139.259C274.873 139.065 274.848 138.976 274.877 138.912C275.102 138.399 274.284 137.46 275.49 137.348C276.086 137.292 276.691 137.124 277.276 137.181ZM161.199 168.335C162.619 168.357 164.038 168.545 165.457 168.532C167.486 168.513 169.422 168.945 171.234 169.743C172.827 170.445 174.299 171.417 175.884 172.327C177.732 173.973 179.139 175.814 179.68 178.172C179.751 178.482 179.41 178.883 179.26 179.243C179.017 179.026 178.623 178.848 178.556 178.588C177.267 173.596 173.641 171.166 168.905 169.948C166.317 169.282 163.7 169.446 161.074 169.68C160.734 169.71 159.972 170.16 159.943 169.264C159.917 168.44 160.613 168.326 161.199 168.335ZM228.704 98.3791C224.091 99.0338 220.679 101.681 218.094 105.482C215.276 109.624 214.333 114.332 214.209 119.17C214.121 122.623 214.534 126.1 214.878 129.552C215.135 132.13 215.5 134.715 216.066 137.242C216.78 140.427 217.764 143.551 218.604 146.708C220.008 151.987 221.777 157.143 224.02 162.124C226.409 167.434 229.551 172.245 233.966 176.135C235.391 177.391 237.043 178.298 238.965 178.489C241.358 178.726 243.683 178.276 245.971 177.575C250.867 176.078 255.814 174.732 260.66 173.092C265.086 171.594 267.843 168.383 268.826 163.822C269.563 160.403 270.185 156.953 270.7 153.494C271.139 150.55 271.495 147.579 271.619 144.609C271.714 142.337 271.417 140.046 271.244 137.768C271.112 136.031 270.902 134.301 270.726 132.334C270.155 128.877 269.121 125.57 267.758 122.335C265.686 117.421 262.833 113.097 258.976 109.365C254.771 105.298 249.745 102.711 244.28 100.931C241.196 99.9266 238.004 99.1875 234.809 98.6054C232.82 98.2429 230.693 98.0967 228.704 98.3791ZM91.3467 130.008C91.2095 130.222 91.0874 130.448 90.9328 130.649C88.0629 134.382 85.0243 137.997 82.3588 141.871C79.2138 146.441 76.586 151.335 74.5458 156.605C73.7513 158.257 73.0242 159.854 72.2748 161.442C71.878 162.282 71.0531 162.177 70.4909 161.906C69.8821 161.613 69.9573 160.992 70.3219 160.34C73.3257 154.963 76.2089 149.518 79.2822 144.183C81.1674 140.91 83.204 137.708 85.404 134.641C86.5809 133 88.2406 131.704 89.7026 130.273C89.8968 130.083 90.1999 129.949 90.4706 129.908C90.7513 129.866 91.0538 129.968 91.3467 130.008ZM99.0474 151.467C95.8292 152.321 94.2295 154.677 94.5083 157.775C94.684 159.727 95.4567 160.977 97.3077 161.504C99.4294 162.107 101.548 161.831 103.546 161.027C106.412 159.875 108.756 158.132 109.467 154.635C109.541 153.693 109.27 153.004 108.431 152.391C105.456 150.216 102.316 150.6 99.0474 151.467ZM166.134 90.1311C166.055 90.2285 165.977 90.2675 165.899 90.3648C165.647 90.4783 165.335 90.4572 165.153 90.5996C160.603 94.1544 157.749 98.7984 156.25 104.316C155.538 106.936 155.215 109.609 155.333 112.304C155.541 117.048 157.03 121.384 159.728 125.329C162.675 129.639 166.592 132.811 171.267 135.037C173.947 136.313 176.791 137.231 179.804 137.391C181.159 137.463 182.547 137.24 183.876 137.438C186.431 137.818 188.808 137.131 191.167 136.444C195.919 135.062 200.101 132.674 203.683 129.223C206.326 126.677 208.612 123.908 210.121 120.55C210.151 120.485 210.188 120.422 210.221 120.358C210.266 120.445 210.359 120.538 210.349 120.618C210.124 122.323 210.233 124.049 209.021 125.57C205.269 130.279 200.917 134.246 195.279 136.55C192.867 137.535 190.291 138.168 187.744 138.768C186.212 139.129 184.587 139.282 183.011 139.241C179.024 139.136 175.177 138.295 171.497 136.711C167.567 135.02 164.127 132.645 161.195 129.561C157.785 125.974 155.405 121.799 154.4 116.945C153.999 115.012 153.681 113.014 153.708 111.05C153.793 104.916 155.596 99.2598 159.168 94.2383C160.142 92.87 161.451 91.7331 162.638 90.5216C163.198 89.9507 165.684 89.6753 166.134 90.1311ZM171.147 90.1903C171.206 90.1972 171.258 90.2694 171.313 90.3111C171.211 90.3474 171.111 90.3878 171.007 90.4193C167.004 91.6415 164.152 94.2699 162.247 97.9092C161.079 100.14 160.447 102.563 160.09 105.091C159.366 110.23 160.552 114.961 163.019 119.37C166.067 124.818 170.377 128.963 176.343 131.11C178.245 131.794 180.212 132.529 182.197 132.708C186.964 133.139 191.542 132.285 195.786 129.896C198.949 128.116 201.549 125.733 203.88 122.967C206.584 119.758 208.122 116.019 209.079 112.023C209.414 110.622 209.27 109.106 209.358 107.644C209.374 107.37 209.451 107.1 209.499 106.828C209.82 106.993 210.314 107.08 210.429 107.338C210.84 108.256 211.474 109.27 211.38 110.18C211.185 112.051 210.716 113.926 210.108 115.714C208.531 120.354 205.744 124.224 202.126 127.482C198.761 130.514 194.881 132.633 190.466 133.696C188.971 134.055 187.459 134.469 185.937 134.557C184.528 134.638 183.084 134.391 181.678 134.155C179.805 133.839 177.891 133.576 176.104 132.968C171.167 131.289 167.026 128.436 163.688 124.345C161.02 121.077 159.479 117.363 158.74 113.291C157.871 108.499 158.65 103.857 160.423 99.3745C161.623 96.3415 163.372 93.6538 165.768 91.4135C165.95 91.244 166.05 90.9871 166.188 90.6538C166.266 90.4979 166.343 90.4589 166.421 90.4199C167.957 89.5432 169.56 90.0058 171.147 90.1903ZM347.092 131.976C348.698 131.993 350.301 132.211 351.906 132.337C353.859 132.49 355.811 132.682 357.768 132.758C359.64 132.83 361.52 132.727 363.392 132.793C364.315 132.825 365.255 132.988 366.133 133.249C366.431 133.338 366.561 133.907 366.769 134.257C366.484 134.342 366.204 134.451 365.912 134.505C365.574 134.568 365.225 134.584 364.821 134.566C360.928 134.439 357.093 134.338 353.258 134.308C351.705 134.296 350.15 134.496 348.596 134.487C347.835 134.483 347.072 134.234 346.315 134.073C345.526 133.906 345.29 133.251 345.584 132.773C345.837 132.362 346.574 131.97 347.092 131.976ZM182.707 93.4286C183.585 97.614 184.398 101.814 185.258 106.003C185.7 108.154 185.176 109.046 183.326 110.091C180.882 111.47 178.518 113.007 176.183 114.575C175.013 115.36 174.053 115.633 173.412 115.013C172.807 114.427 172.708 113.911 173.515 113.362C176.041 111.642 178.579 109.934 181.021 108.095C181.553 107.695 182.032 106.739 181.977 106.088C181.777 103.712 181.353 101.354 180.988 98.9936C180.835 98.0086 180.616 97.0346 180.426 95.9377C180.336 94.9701 180.077 94.0895 180.217 93.2818C180.305 92.7755 180.943 92.0842 181.424 91.9975C182.276 91.8438 182.564 92.747 182.707 93.4286ZM343.738 83.6491C343.88 83.798 343.958 84.2035 343.858 84.3515C343.377 85.0614 342.824 85.7236 342.238 86.4612C340.347 89.0388 338.539 91.5752 336.656 94.0559C336.409 94.3807 335.611 94.6902 335.36 94.5369C334.72 94.147 335.296 93.731 335.562 93.2891C337.321 90.3566 339.025 87.3907 340.769 84.449C341.572 83.0944 342.878 82.7505 343.738 83.6491ZM290.104 45.7529C290.412 45.7787 290.758 46.1505 290.966 46.4573C291.728 47.5827 291.328 48.8477 291.176 50.0168C290.911 52.0568 290.432 54.0676 290.058 56.0937C289.884 57.0399 289.747 57.9933 289.593 59.0606C289.285 60.6486 288.95 62.1142 288.675 63.5913C288.175 66.2744 287.729 68.9676 287.228 71.6502C286.809 73.8881 286.357 76.1197 285.895 78.3489C285.136 82.0089 284.383 85.6703 283.572 89.3183C283.35 90.3192 282.57 90.6941 281.931 90.2152C281.715 90.0537 281.5 89.6398 281.551 89.4001C282.747 83.82 284.028 78.2585 285.189 72.671C286.042 68.5629 286.652 64.402 287.541 60.3029C288.389 56.3978 288.825 52.4829 288.7 48.4867C288.678 47.7955 289.002 47.0655 289.283 46.4047C289.411 46.1053 289.841 45.7309 290.104 45.7529ZM226.765 73.4647C226.99 73.8449 227.221 74.2212 227.449 74.7187C227.829 76.7404 228.222 78.6401 228.585 80.5458C228.768 81.5064 228.909 82.4763 229.047 83.4455C229.081 83.6863 229.026 83.9408 229.013 84.189C228.677 84.1327 228.136 84.1898 228.041 84.0011C227.552 83.0291 227.113 82.0168 226.782 80.9749C226.403 79.7812 226.244 78.5063 225.817 77.336C225.583 76.6956 224.945 76.2291 224.574 75.6272C224.254 75.1066 223.876 74.5106 223.861 73.938C223.851 73.5706 224.401 72.9533 224.791 72.8592C225.472 72.6946 226.282 72.649 226.765 73.4647Z" fill="#1E1E3E"/>
<path d="M149.038 190.115C150.424 189.744 151.428 188.993 151.279 188.439C151.131 187.885 149.887 187.737 148.501 188.108C147.115 188.479 146.111 189.23 146.26 189.784C146.408 190.338 147.652 190.486 149.038 190.115Z" fill="#1AB3FF"/>
<path fill-rule="evenodd" clip-rule="evenodd" d="M158.579 185.609C159.568 185.238 160.139 184.488 159.935 183.934C159.743 183.379 159.011 183.231 158.217 183.602C157.346 183.974 156.569 184.724 156.565 185.278C156.573 185.832 157.511 185.981 158.579 185.609Z" fill="#1AB3FF"/>
</svg>
